# Blender v2.82 (sub 7) OBJ File: ''
# www.blender.org
mtllib Corridoor.mtl
o Plane
v 9.000000 0.000000 -0.998838
v 9.000000 0.000000 -3.998838
v 1.000000 0.000000 -3.998838
v 1.000000 0.000000 -0.998838
v 1.000000 0.000000 -0.998838
v 1.000000 0.000000 -3.998838
v 1.000000 0.000000 -3.998838
v 1.000000 0.000000 -3.998838
v 1.000000 0.000000 -3.998838
v 9.000000 0.000000 -3.998838
v 9.000000 0.000000 -0.998838
v 9.000000 0.000000 -0.998838
v 9.000000 3.000000 -0.998838
v 9.000000 3.000000 -3.998838
v 1.000000 3.000000 -3.998838
v 1.000000 3.000000 -0.998838
v 1.000000 3.000000 -0.998838
v 1.000000 3.000000 -3.998838
v 1.000000 3.000000 -3.998838
v 1.000000 3.000000 -3.998838
v 1.000000 3.000000 -3.998838
v 9.000000 3.000000 -3.998838
v 9.000000 3.000000 -0.998838
v 9.000000 3.000000 -0.998838
v 1.727273 0.000000 -0.998838
v 2.454545 0.000000 -0.998838
v 3.181818 0.000000 -0.998838
v 3.909091 0.000000 -0.998838
v 4.636364 0.000000 -0.998838
v 5.363636 0.000000 -0.998838
v 6.090909 0.000000 -0.998838
v 6.818181 0.000000 -0.998838
v 7.545454 0.000000 -0.998838
v 8.272726 0.000000 -0.998838
v 1.727273 3.000000 -0.998838
v 2.454545 3.000000 -0.998838
v 3.181818 3.000000 -0.998838
v 3.909091 3.000000 -0.998838
v 4.636364 3.000000 -0.998838
v 5.363636 3.000000 -0.998838
v 6.090909 3.000000 -0.998838
v 6.818181 3.000000 -0.998838
v 7.545454 3.000000 -0.998838
v 8.272726 3.000000 -0.998838
v 9.000000 0.272727 -0.998838
v 9.000000 0.545455 -0.998838
v 9.000000 0.818182 -0.998838
v 9.000000 1.090909 -0.998838
v 9.000000 1.363636 -0.998838
v 9.000000 1.636364 -0.998838
v 9.000000 1.909091 -0.998838
v 9.000000 2.181818 -0.998838
v 9.000000 2.454545 -0.998838
v 9.000000 2.727273 -0.998838
v 1.000000 2.727273 -0.998838
v 1.000000 2.454545 -0.998838
v 1.000000 2.181818 -0.998838
v 1.000000 1.909091 -0.998838
v 1.000000 1.636364 -0.998838
v 1.000000 1.363636 -0.998838
v 1.000000 1.090909 -0.998838
v 1.000000 0.818182 -0.998838
v 1.000000 0.545455 -0.998838
v 1.000000 0.272727 -0.998838
v 8.272726 0.272727 -0.998838
v 8.272726 0.545455 -0.998838
v 8.272726 0.818182 -0.998838
v 8.272726 1.090909 -0.998838
v 8.272726 1.363636 -0.998838
v 8.272726 1.636364 -0.998838
v 8.272726 1.909091 -0.998838
v 8.272726 2.181818 -0.998838
v 8.272726 2.454545 -0.998838
v 8.272726 2.727273 -0.998838
v 7.545454 0.272727 -0.998838
v 7.545454 0.545455 -0.998838
v 7.545454 0.818182 -0.998838
v 7.545454 1.090909 -0.998838
v 7.545454 1.363636 -0.998838
v 7.545454 1.636364 -0.998838
v 7.545454 1.909091 -0.998838
v 7.545454 2.181818 -0.998838
v 7.545454 2.454545 -0.998838
v 7.545454 2.727273 -0.998838
v 6.818181 0.272727 -0.998838
v 6.818181 0.545455 -0.998838
v 6.818181 0.818182 -0.998838
v 6.818181 1.090909 -0.998838
v 6.818181 1.363636 -0.998838
v 6.818181 1.636364 -0.998838
v 6.818181 1.909091 -0.998838
v 6.818181 2.181818 -0.998838
v 6.818181 2.454545 -0.998838
v 6.818181 2.727273 -0.998838
v 6.090909 0.272727 -0.998838
v 6.090909 0.545455 -0.998838
v 6.090909 0.818182 -0.998838
v 6.090909 1.090909 -0.998838
v 6.090909 1.363636 -0.998838
v 6.090909 1.636364 -0.998838
v 6.090909 1.909091 -0.998838
v 6.090909 2.181818 -0.998838
v 6.090909 2.454545 -0.998838
v 6.090909 2.727273 -0.998838
v 5.363636 0.272727 -0.998838
v 5.363636 0.545455 -0.998838
v 5.363636 0.818182 -0.998838
v 5.363636 1.090909 -0.998838
v 5.363636 1.363636 -0.998838
v 5.363636 1.636364 -0.998838
v 5.363636 1.909091 -0.998838
v 5.363636 2.181818 -0.998838
v 5.363636 2.454545 -0.998838
v 5.363636 2.727273 -0.998838
v 4.636364 0.272727 -0.998838
v 4.636364 0.545455 -0.998838
v 4.636364 0.818182 -0.998838
v 4.636364 1.090909 -0.998838
v 4.636364 1.363636 -0.998838
v 4.636364 1.636364 -0.998838
v 4.636364 1.909091 -0.998838
v 4.636364 2.181818 -0.998838
v 4.636364 2.454545 -0.998838
v 4.636364 2.727273 -0.998838
v 3.909091 0.272727 -0.998838
v 3.909091 0.545455 -0.998838
v 3.909091 0.818182 -0.998838
v 3.909091 1.090909 -0.998838
v 3.909091 1.363636 -0.998838
v 3.909091 1.636364 -0.998838
v 3.909091 1.909091 -0.998838
v 3.909091 2.181818 -0.998838
v 3.909091 2.454545 -0.998838
v 3.909091 2.727273 -0.998838
v 3.181818 0.272727 -0.998838
v 3.181818 0.545455 -0.998838
v 3.181818 0.818182 -0.998838
v 3.181818 1.090909 -0.998838
v 3.181818 1.363636 -0.998838
v 3.181818 1.636364 -0.998838
v 3.181818 1.909091 -0.998838
v 3.181818 2.181818 -0.998838
v 3.181818 2.454545 -0.998838
v 3.181818 2.727273 -0.998838
v 2.454545 0.272727 -0.998838
v 2.454545 0.545455 -0.998838
v 2.454545 0.818182 -0.998838
v 2.454545 1.090909 -0.998838
v 2.454545 1.363636 -0.998838
v 2.454545 1.636364 -0.998838
v 2.454545 1.909091 -0.998838
v 2.454545 2.181818 -0.998838
v 2.454545 2.454545 -0.998838
v 2.454545 2.727273 -0.998838
v 1.727273 0.272727 -0.998838
v 1.727273 0.545455 -0.998838
v 1.727273 0.818182 -0.998838
v 1.727273 1.090909 -0.998838
v 1.727273 1.363636 -0.998838
v 1.727273 1.636364 -0.998838
v 1.727273 1.909091 -0.998838
v 1.727273 2.181818 -0.998838
v 1.727273 2.454545 -0.998838
v 1.727273 2.727273 -0.998838
v -1.000000 0.000000 1.000000
v 1.000000 0.000000 1.000000
v -1.000000 0.000000 -1.000000
v 1.000000 0.000000 -1.000000
vt 0.000000 0.000000
vt 0.000000 0.000000
vt 0.000000 0.000000
vt 0.000000 0.000000
vt 0.000000 0.000000
vt 0.000000 0.000000
vt 0.000000 0.000000
vt 0.000000 0.000000
vt 0.000000 0.000000
vt 0.000000 0.000000
vt 0.000000 0.000000
vt 0.000000 0.000000
vt 0.000000 0.000000
vt 0.000000 0.000000
vt 0.000000 0.000000
vt 0.000000 0.000000
vt 0.000000 0.000000
vt 0.000000 0.000000
vt 0.000000 0.000000
vt 0.000000 0.000000
vt 0.000000 0.000000
vt 0.000000 0.000000
vt 0.000000 0.000000
vt 0.000000 0.000000
vt 0.000000 0.000000
vt 0.000000 0.000000
vt 0.000000 0.000000
vt 0.000000 0.000000
vt 0.000000 0.000000
vt 0.000000 0.000000
vt 0.000000 0.000000
vt 0.000000 0.000000
vt 0.000000 0.000000
vt 0.000000 0.000000
vt 0.000000 0.000000
vt 0.000000 0.000000
vt 0.000000 0.000000
vt 0.000000 0.000000
vt 0.000000 0.000000
vt 0.000000 0.000000
vt 0.000000 0.000000
vt 0.000000 0.000000
vt 0.000000 0.000000
vt 0.000000 0.000000
vt 0.000000 0.000000
vt 0.000000 0.000000
vt 0.000000 0.000000
vt 0.000000 0.000000
vt 0.000000 0.000000
vt 0.000000 0.000000
vt 0.000000 0.000000
vt 0.000000 0.000000
vt 0.000000 0.000000
vt 0.000000 0.000000
vt 0.000000 0.000000
vt 0.000000 0.000000
vt 0.000000 0.000000
vt 0.000000 0.000000
vt 0.000000 0.000000
vt 0.000000 0.000000
vt 0.000000 0.000000
vt 0.000000 0.000000
vt 0.000000 0.000000
vt 0.000000 0.000000
vt 0.000000 0.000000
vt 0.000000 0.000000
vt 0.000000 0.000000
vt 0.000000 0.000000
vt 0.000000 0.000000
vt 0.000000 0.000000
vt 0.000000 0.000000
vt 0.000000 0.000000
vt 0.000000 0.000000
vt 0.000000 0.000000
vt 0.000000 0.000000
vt 0.000000 0.000000
vt 0.000000 0.000000
vt 0.000000 0.000000
vt 0.000000 0.000000
vt 0.000000 0.000000
vt 0.000000 0.000000
vt 0.000000 0.000000
vt 0.000000 0.000000
vt 0.000000 0.000000
vt 0.000000 0.000000
vt 0.000000 0.000000
vt 0.000000 0.000000
vt 0.000000 0.000000
vt 0.000000 0.000000
vt 0.000000 0.000000
vt 0.000000 0.000000
vt 0.000000 0.000000
vt 0.000000 0.000000
vt 0.000000 0.000000
vt 0.000000 0.000000
vt 0.000000 0.000000
vt 0.000000 0.000000
vt 0.000000 0.000000
vt 0.000000 0.000000
vt 0.000000 0.000000
vt 0.000000 0.000000
vt 0.000000 0.000000
vt 0.000000 0.000000
vt 0.000000 0.000000
vt 0.000000 0.000000
vt 0.000000 0.000000
vt 0.000000 0.000000
vt 0.000000 0.000000
vt 0.000000 0.000000
vt 0.000000 0.000000
vt 0.000000 0.000000
vt 0.000000 0.000000
vt 0.000000 0.000000
vt 0.000000 0.000000
vt 0.000000 0.000000
vt 0.000000 0.000000
vt 0.000000 0.000000
vt 0.000000 0.000000
vt 0.000000 0.000000
vt 0.000000 0.000000
vt 0.000000 0.000000
vt 0.000000 0.000000
vt 0.000000 0.000000
vt 0.000000 0.000000
vt 0.000000 0.000000
vt 0.000000 0.000000
vt 0.000000 0.000000
vt 0.000000 0.000000
vt 0.000000 0.000000
vt 0.000000 0.000000
vt 0.000000 0.000000
vt 0.000000 0.000000
vt 0.000000 0.000000
vt 0.000000 0.000000
vt 0.000000 0.000000
vt 0.000000 0.000000
vt 0.000000 0.000000
vt 0.000000 0.000000
vt 0.000000 0.000000
vt 0.000000 0.000000
vt 0.000000 0.000000
vt 0.000000 0.000000
vt 0.000000 0.000000
vt 0.000000 0.000000
vt 0.000000 0.000000
vt 0.000000 0.000000
vt 0.000000 0.000000
vt 0.000000 0.000000
vt 0.000000 0.000000
vt 0.000000 0.000000
vt 0.000000 0.000000
vt 0.000000 0.000000
vt 0.000000 0.000000
vt 0.000000 0.000000
vt 0.000000 0.000000
vt 0.000000 0.000000
vt 0.000000 0.000000
vt 0.000000 0.000000
vt 0.000000 0.000000
vt 0.000000 0.000000
vt 0.000000 0.000000
vt 0.000000 0.000000
vt 0.000000 0.000000
vt 0.000000 0.000000
vt 0.000000 0.000000
vn 0.0000 0.0000 1.0000
vn 1.0000 0.0000 0.0000
vn 0.0000 0.0000 -1.0000
vn -1.0000 0.0000 0.0000
vn 0.0000 1.0000 0.0000
usemtl None
s off
f 9/1/1 3/2/1 2/3/1 10/4/1
f 5/5/1 4/6/1 25/7/1 26/8/1 27/9/1 28/10/1 29/11/1 30/12/1 31/13/1 32/14/1 33/15/1 34/16/1 1/17/1 12/18/1
f 21/19/1 22/20/1 14/21/1 15/22/1
f 17/23/1 24/24/1 13/25/1 44/26/1 43/27/1 42/28/1 41/29/1 40/30/1 39/31/1 38/32/1 37/33/1 36/34/1 35/35/1 16/36/1
f 12/18/2 1/17/2 45/37/2 46/38/2 47/39/2 48/40/2 49/41/2 50/42/2 51/43/2 52/44/2 53/45/2 54/46/2 13/25/2 24/24/2
f 2/3/3 3/2/3 15/22/3 14/21/3
f 4/6/4 5/5/4 17/23/4 16/36/4 55/47/4 56/48/4 57/49/4 58/50/4 59/51/4 60/52/4 61/53/4 62/54/4 63/55/4 64/56/4
f 5/5/2 6/57/2 18/58/2 17/23/2
f 6/57/1 7/59/1 19/60/1 18/58/1
f 7/59/1 8/61/1 20/62/1 19/60/1
f 3/2/1 9/1/1 21/19/1 15/22/1
f 9/1/1 10/4/1 22/20/1 21/19/1
f 10/4/1 2/3/1 14/21/1 22/20/1
f 10/4/4 11/63/4 23/64/4 22/20/4
f 164/65/3 55/47/3 16/36/3 35/35/3
f 11/63/1 12/18/1 24/24/1 23/64/1
f 54/46/3 74/66/3 44/26/3 13/25/3
f 74/66/3 84/67/3 43/27/3 44/26/3
f 84/67/3 94/68/3 42/28/3 43/27/3
f 94/68/3 104/69/3 41/29/3 42/28/3
f 104/69/3 114/70/3 40/30/3 41/29/3
f 114/70/3 124/71/3 39/31/3 40/30/3
f 124/71/3 134/72/3 38/32/3 39/31/3
f 134/72/3 144/73/3 37/33/3 38/32/3
f 144/73/3 154/74/3 36/34/3 37/33/3
f 154/74/3 164/65/3 35/35/3 36/34/3
f 1/17/3 34/16/3 65/75/3 45/37/3
f 45/37/3 65/75/3 66/76/3 46/38/3
f 46/38/3 66/76/3 67/77/3 47/39/3
f 47/39/3 67/77/3 68/78/3 48/40/3
f 48/40/3 68/78/3 69/79/3 49/41/3
f 49/41/3 69/79/3 70/80/3 50/42/3
f 50/42/3 70/80/3 71/81/3 51/43/3
f 51/43/3 71/81/3 72/82/3 52/44/3
f 52/44/3 72/82/3 73/83/3 53/45/3
f 53/45/3 73/83/3 74/66/3 54/46/3
f 34/16/3 33/15/3 75/84/3 65/75/3
f 65/75/3 75/84/3 76/85/3 66/76/3
f 66/76/3 76/85/3 77/86/3 67/77/3
f 67/77/3 77/86/3 78/87/3 68/78/3
f 68/78/3 78/87/3 79/88/3 69/79/3
f 69/79/3 79/88/3 80/89/3 70/80/3
f 70/80/3 80/89/3 81/90/3 71/81/3
f 71/81/3 81/90/3 82/91/3 72/82/3
f 72/82/3 82/91/3 83/92/3 73/83/3
f 73/83/3 83/92/3 84/67/3 74/66/3
f 78/87/3 88/93/3 89/94/3 79/88/3
f 79/88/3 89/94/3 90/95/3 80/89/3
f 80/89/3 90/95/3 91/96/3 81/90/3
f 81/90/3 91/96/3 92/97/3 82/91/3
f 82/91/3 92/97/3 93/98/3 83/92/3
f 83/92/3 93/98/3 94/68/3 84/67/3
f 32/14/3 31/13/3 95/99/3 85/100/3
f 85/100/3 95/99/3 96/101/3 86/102/3
f 86/102/3 96/101/3 97/103/3 87/104/3
f 87/104/3 97/103/3 98/105/3 88/93/3
f 88/93/3 98/105/3 99/106/3 89/94/3
f 89/94/3 99/106/3 100/107/3 90/95/3
f 90/95/3 100/107/3 101/108/3 91/96/3
f 91/96/3 101/108/3 102/109/3 92/97/3
f 92/97/3 102/109/3 103/110/3 93/98/3
f 93/98/3 103/110/3 104/69/3 94/68/3
f 31/13/3 30/12/3 105/111/3 95/99/3
f 95/99/3 105/111/3 106/112/3 96/101/3
f 96/101/3 106/112/3 107/113/3 97/103/3
f 97/103/3 107/113/3 108/114/3 98/105/3
f 98/105/3 108/114/3 109/115/3 99/106/3
f 99/106/3 109/115/3 110/116/3 100/107/3
f 100/107/3 110/116/3 111/117/3 101/108/3
f 101/108/3 111/117/3 112/118/3 102/109/3
f 102/109/3 112/118/3 113/119/3 103/110/3
f 103/110/3 113/119/3 114/70/3 104/69/3
f 30/12/3 29/11/3 115/120/3 105/111/3
f 105/111/3 115/120/3 116/121/3 106/112/3
f 106/112/3 116/121/3 117/122/3 107/113/3
f 107/113/3 117/122/3 118/123/3 108/114/3
f 108/114/3 118/123/3 119/124/3 109/115/3
f 109/115/3 119/124/3 120/125/3 110/116/3
f 110/116/3 120/125/3 121/126/3 111/117/3
f 111/117/3 121/126/3 122/127/3 112/118/3
f 112/118/3 122/127/3 123/128/3 113/119/3
f 113/119/3 123/128/3 124/71/3 114/70/3
f 118/123/3 128/129/3 129/130/3 119/124/3
f 119/124/3 129/130/3 130/131/3 120/125/3
f 120/125/3 130/131/3 131/132/3 121/126/3
f 121/126/3 131/132/3 132/133/3 122/127/3
f 122/127/3 132/133/3 133/134/3 123/128/3
f 123/128/3 133/134/3 134/72/3 124/71/3
f 28/10/3 27/9/3 135/135/3 125/136/3
f 125/136/3 135/135/3 136/137/3 126/138/3
f 126/138/3 136/137/3 137/139/3 127/140/3
f 127/140/3 137/139/3 138/141/3 128/129/3
f 128/129/3 138/141/3 139/142/3 129/130/3
f 129/130/3 139/142/3 140/143/3 130/131/3
f 130/131/3 140/143/3 141/144/3 131/132/3
f 131/132/3 141/144/3 142/145/3 132/133/3
f 132/133/3 142/145/3 143/146/3 133/134/3
f 133/134/3 143/146/3 144/73/3 134/72/3
f 138/141/3 148/147/3 149/148/3 139/142/3
f 139/142/3 149/148/3 150/149/3 140/143/3
f 140/143/3 150/149/3 151/150/3 141/144/3
f 141/144/3 151/150/3 152/151/3 142/145/3
f 142/145/3 152/151/3 153/152/3 143/146/3
f 143/146/3 153/152/3 154/74/3 144/73/3
f 26/8/3 25/7/3 155/153/3 145/154/3
f 145/154/3 155/153/3 156/155/3 146/156/3
f 146/156/3 156/155/3 157/157/3 147/158/3
f 147/158/3 157/157/3 158/159/3 148/147/3
f 148/147/3 158/159/3 159/160/3 149/148/3
f 149/148/3 159/160/3 160/161/3 150/149/3
f 150/149/3 160/161/3 161/162/3 151/150/3
f 151/150/3 161/162/3 162/163/3 152/151/3
f 152/151/3 162/163/3 163/164/3 153/152/3
f 153/152/3 163/164/3 164/65/3 154/74/3
f 25/7/3 4/6/3 64/56/3 155/153/3
f 155/153/3 64/56/3 63/55/3 156/155/3
f 156/155/3 63/55/3 62/54/3 157/157/3
f 157/157/3 62/54/3 61/53/3 158/159/3
f 158/159/3 61/53/3 60/52/3 159/160/3
f 159/160/3 60/52/3 59/51/3 160/161/3
f 160/161/3 59/51/3 58/50/3 161/162/3
f 161/162/3 58/50/3 57/49/3 162/163/3
f 162/163/3 57/49/3 56/48/3 163/164/3
f 163/164/3 56/48/3 55/47/3 164/65/3
f 9/1/5 168/165/5 12/18/5 11/63/5 10/4/5
