# Blender v2.82 (sub 7) OBJ File: 'Map_test.blend'
# www.blender.org
mtllib Map_test.mtl
o Plane
v 1.272298 0.000000 -1.444976
v 9.272298 0.000000 -1.444976
v 9.272298 0.000000 -1.444976
v 9.272298 0.000000 -5.444976
v 9.272298 0.000000 -5.444976
v 17.272297 0.000000 -5.444976
v 17.272297 0.000000 -5.444976
v 17.272297 0.000000 -11.444976
v 1.272298 0.000000 -11.444976
v 9.272298 0.000000 -5.444976
v 17.272297 0.000000 -5.444976
v 17.272297 0.000000 -11.444976
v 1.272298 0.000000 -11.444976
v 1.272298 0.000000 -1.444976
v 9.272298 0.000000 -1.444976
v 9.272298 0.000000 -5.444976
v 17.272297 0.000000 -5.444976
v 17.272297 0.000000 -11.444976
v 1.272298 0.000000 -11.444976
v 1.272298 0.000000 -1.444976
v 9.272298 0.000000 -1.444976
v 9.272298 0.000000 -1.444976
v 9.272298 0.000000 -5.444976
v 9.272298 0.000000 -5.444976
v 17.272297 0.000000 -5.444976
v 17.272297 0.000000 -5.444976
v 17.272297 0.000000 -11.444976
v 1.272298 0.000000 -11.444976
v 9.272298 0.000000 -5.444976
v 17.272297 0.000000 -5.444976
v 1.272298 0.000000 -11.444976
v 1.272298 0.000000 -1.444976
v 9.272298 0.000000 -1.444976
v 9.272298 0.000000 -5.444976
v 17.272297 0.000000 -5.444976
v 17.272297 0.000000 -11.444976
v 1.272298 0.000000 -11.444976
v 1.272298 5.000000 -1.444976
v 9.272298 5.000000 -1.444976
v 9.272298 5.000000 -1.444976
v 9.272298 5.000000 -5.444976
v 9.272298 5.000000 -5.444976
v 17.272297 5.000000 -5.444976
v 17.272297 5.000000 -5.444976
v 17.272297 5.000000 -11.444976
v 1.272298 5.000000 -11.444976
v 9.272298 5.000000 -5.444976
v 17.272297 5.000000 -5.444976
v 1.272298 5.000000 -11.444976
v 1.272298 5.000000 -1.444976
v 9.272298 5.000000 -1.444976
v 9.272298 5.000000 -5.444976
v 17.272297 5.000000 -5.444976
v 17.272297 5.000000 -11.444976
v 1.272298 5.000000 -11.444976
vt 0.000000 0.000000
vt 0.000000 0.000000
vt 0.000000 0.000000
vt 0.000000 0.000000
vt 0.000000 0.000000
vt 0.000000 0.000000
vt 0.000000 0.000000
vt 0.000000 0.000000
vt 0.000000 0.000000
vt 0.000000 0.000000
vt 0.000000 0.000000
vt 0.000000 0.000000
vt 0.000000 0.000000
vt 0.000000 0.000000
vt 0.000000 0.000000
vt 0.000000 0.000000
vt 0.000000 0.000000
vt 0.000000 0.000000
vt 0.000000 0.000000
vt 0.000000 0.000000
vt 0.000000 0.000000
vt 0.000000 0.000000
vt 0.000000 0.000000
vt 0.000000 0.000000
vt 0.000000 0.000000
vt 0.000000 0.000000
vt 0.000000 0.000000
vt 0.000000 0.000000
vt 0.000000 0.000000
vt 0.000000 0.000000
vt 0.000000 0.000000
vt 0.000000 0.000000
vt 0.000000 0.000000
vt 0.000000 0.000000
vt 0.000000 0.000000
vt 0.000000 0.000000
vt 0.000000 0.000000
vt 0.000000 0.000000
vt 0.000000 0.000000
vt 0.000000 0.000000
vt 0.000000 0.000000
vt 0.000000 0.000000
vt 0.000000 0.000000
vt 0.000000 0.000000
vt 0.000000 0.000000
vt 0.000000 0.000000
vt 0.000000 0.000000
vt 0.000000 0.000000
vt 0.000000 0.000000
vt 0.000000 0.000000
vt 0.000000 0.000000
vt 0.000000 0.000000
vt 0.000000 0.000000
vt 0.000000 0.000000
vt 0.000000 0.000000
vn 0.0000 0.0000 1.0000
vn 0.0000 0.0000 -1.0000
vn -1.0000 0.0000 0.0000
vn 1.0000 0.0000 0.0000
vn 0.0000 1.0000 0.0000
usemtl None
s off
f 8/1/1 12/2/1 13/3/1 9/4/1
f 7/5/1 11/6/1 12/2/1 8/1/1
f 11/6/1 17/7/1 18/8/1 12/2/1
f 12/2/1 18/8/1 19/9/1 13/3/1
f 37/10/2 55/11/2 54/12/2 36/13/2
f 20/14/3 38/15/3 46/16/3 28/17/3
f 29/18/1 34/19/1 52/20/1 47/21/1
f 26/22/4 27/23/4 45/24/4 44/25/4
f 19/9/1 18/8/1 36/13/1 37/10/1
f 8/1/1 9/4/1 28/17/1 27/23/1
f 1/26/1 2/27/1 21/28/1 20/14/1
f 18/8/1 17/7/1 35/29/1 36/13/1
f 2/27/1 4/30/1 23/31/1 21/28/1
f 9/4/1 13/3/1 31/32/1 28/17/1
f 17/7/1 11/6/1 30/33/1 35/29/1
f 4/30/1 5/34/1 24/35/1 23/31/1
f 13/3/1 19/9/1 37/10/1 31/32/1
f 11/6/1 7/5/1 26/22/1 30/33/1
f 5/34/1 6/36/1 25/37/1 24/35/1
f 3/38/1 15/39/1 33/40/1 22/41/1
f 2/27/1 3/38/1 22/41/1 21/28/1
f 6/36/1 7/5/1 26/22/1 25/37/1
f 1/26/1 14/42/1 32/43/1 20/14/1
f 5/34/1 10/44/1 29/18/1 24/35/1
f 7/5/1 8/1/1 27/23/1 26/22/1
f 10/44/1 16/45/1 34/19/1 29/18/1
f 1/26/1 9/4/1 28/17/1 20/14/1
f 20/14/1 21/28/1 39/46/1 38/15/1
f 21/28/4 23/31/4 41/47/4 39/46/4
f 28/17/1 31/32/1 49/48/1 46/16/1
f 35/29/1 30/33/1 48/49/1 53/50/1
f 23/31/1 24/35/1 42/51/1 41/47/1
f 31/32/1 37/10/1 55/11/1 49/48/1
f 30/33/1 26/22/1 44/25/1 48/49/1
f 24/35/1 25/37/1 43/52/1 42/51/1
f 22/41/1 33/40/1 51/53/1 40/54/1
f 21/28/1 22/41/1 40/54/1 39/46/1
f 25/37/1 26/22/1 44/25/1 43/52/1
f 20/14/1 32/43/1 50/55/1 38/15/1
f 24/35/1 29/18/1 47/21/1 42/51/1
f 45/24/1 46/16/1 49/48/1 55/11/1 54/12/1 53/50/1 48/49/1 44/25/1
f 50/55/5 38/15/5 51/53/5 40/54/5 39/46/5 52/20/5 47/21/5 42/51/5 41/47/5 55/11/5 49/48/5 46/16/5
f 54/12/5 55/11/5 41/47/5 42/51/5 47/21/5 52/20/5 43/52/5 44/25/5 48/49/5 53/50/5
o Plane.001
v 1.272298 0.000000 -1.444976
v 9.272298 0.000000 -1.444976
v 9.272298 0.000000 -1.444976
v 9.272298 0.000000 -5.444976
v 9.272298 0.000000 -5.444976
v 17.272297 0.000000 -5.444976
v 17.272297 0.000000 -5.444976
v 17.272297 0.000000 -11.444976
v 1.272298 0.000000 -11.444976
v 9.272298 0.000000 -5.444976
v 17.272297 0.000000 -5.444976
v 17.272297 0.000000 -11.444976
v 1.272298 0.000000 -11.444976
v 1.272298 0.000000 -1.444976
v 9.272298 0.000000 -1.444976
v 9.272298 0.000000 -5.444976
v 17.272297 0.000000 -5.444976
v 17.272297 0.000000 -11.444976
v 1.272298 0.000000 -11.444976
v 1.272298 0.000000 -1.444976
v 9.272298 0.000000 -1.444976
v 9.272298 0.000000 -1.444976
v 9.272298 0.000000 -5.444976
v 9.272298 0.000000 -5.444976
v 17.272297 0.000000 -5.444976
v 17.272297 0.000000 -5.444976
v 17.272297 0.000000 -11.444976
v 1.272298 0.000000 -11.444976
v 9.272298 0.000000 -5.444976
v 17.272297 0.000000 -5.444976
v 1.272298 0.000000 -11.444976
v 1.272298 0.000000 -1.444976
v 9.272298 0.000000 -1.444976
v 9.272298 0.000000 -5.444976
v 17.272297 0.000000 -5.444976
v 17.272297 0.000000 -11.444976
v 1.272298 0.000000 -11.444976
v 1.272298 5.000000 -1.444976
v 9.272298 5.000000 -1.444976
v 9.272298 5.000000 -1.444976
v 9.272298 5.000000 -5.444976
v 9.272298 5.000000 -5.444976
v 17.272297 5.000000 -5.444976
v 17.272297 5.000000 -5.444976
v 17.272297 5.000000 -11.444976
v 1.272298 5.000000 -11.444976
v 9.272298 5.000000 -5.444976
v 17.272297 5.000000 -5.444976
v 1.272298 5.000000 -11.444976
v 1.272298 5.000000 -1.444976
v 9.272298 5.000000 -1.444976
v 9.272298 5.000000 -5.444976
v 17.272297 5.000000 -5.444976
v 17.272297 5.000000 -11.444976
v 1.272298 5.000000 -11.444976
vt 0.000000 0.000000
vt 0.000000 0.000000
vt 0.000000 0.000000
vt 0.000000 0.000000
vt 0.000000 0.000000
vt 0.000000 0.000000
vt 0.000000 0.000000
vt 0.000000 0.000000
vt 0.000000 0.000000
vt 0.000000 0.000000
vt 0.000000 0.000000
vt 0.000000 0.000000
vt 0.000000 0.000000
vt 0.000000 0.000000
vt 0.000000 0.000000
vt 0.000000 0.000000
vt 0.000000 0.000000
vt 0.000000 0.000000
vt 0.000000 0.000000
vt 0.000000 0.000000
vt 0.000000 0.000000
vt 0.000000 0.000000
vt 0.000000 0.000000
vt 0.000000 0.000000
vt 0.000000 0.000000
vt 0.000000 0.000000
vt 0.000000 0.000000
vt 0.000000 0.000000
vt 0.000000 0.000000
vt 0.000000 0.000000
vt 0.000000 0.000000
vt 0.000000 0.000000
vt 0.000000 0.000000
vt 0.000000 0.000000
vt 0.000000 0.000000
vt 0.000000 0.000000
vt 0.000000 0.000000
vt 0.000000 0.000000
vt 0.000000 0.000000
vt 0.000000 0.000000
vt 0.000000 0.000000
vt 0.000000 0.000000
vt 0.000000 0.000000
vt 0.000000 0.000000
vt 0.000000 0.000000
vt 0.000000 0.000000
vt 0.000000 0.000000
vt 0.000000 0.000000
vt 0.000000 0.000000
vt 0.000000 0.000000
vt 0.000000 0.000000
vt 0.000000 0.000000
vt 0.000000 0.000000
vt 0.000000 0.000000
vt 0.000000 0.000000
vn 0.0000 0.0000 1.0000
vn 1.0000 0.0000 0.0000
vn -1.0000 0.0000 0.0000
vn 0.0000 0.0000 -1.0000
vn 0.0000 -1.0000 0.0000
usemtl None
s off
f 63/56/6 67/57/6 68/58/6 64/59/6
f 62/60/6 66/61/6 67/57/6 63/56/6
f 66/61/6 72/62/6 73/63/6 67/57/6
f 67/57/6 73/63/6 74/64/6 68/58/6
f 92/65/6 91/66/6 109/67/6 110/68/6
f 75/69/7 83/70/7 101/71/7 93/72/7
f 84/73/6 89/74/6 107/75/6 102/76/6
f 81/77/8 99/78/8 100/79/8 82/80/8
f 74/64/6 73/63/6 91/66/6 92/65/6
f 63/56/6 64/59/6 83/70/6 82/80/6
f 56/81/6 57/82/6 76/83/6 75/69/6
f 73/63/6 72/62/6 90/84/6 91/66/6
f 57/82/6 59/85/6 78/86/6 76/83/6
f 64/59/6 68/58/6 86/87/6 83/70/6
f 72/62/6 66/61/6 85/88/6 90/84/6
f 59/85/6 60/89/6 79/90/6 78/86/6
f 68/58/6 74/64/6 92/65/6 86/87/6
f 66/61/6 62/60/6 81/77/6 85/88/6
f 60/89/6 61/91/6 80/92/6 79/90/6
f 58/93/6 70/94/6 88/95/6 77/96/6
f 57/82/6 58/93/6 77/96/6 76/83/6
f 61/91/6 62/60/6 81/77/6 80/92/6
f 56/81/6 69/97/6 87/98/6 75/69/6
f 60/89/6 65/99/6 84/73/6 79/90/6
f 62/60/6 63/56/6 82/80/6 81/77/6
f 65/99/6 71/100/6 89/74/6 84/73/6
f 56/81/6 64/59/6 83/70/6 75/69/6
f 75/69/9 93/72/9 94/101/9 76/83/9
f 76/83/8 94/101/8 96/102/8 78/86/8
f 83/70/6 86/87/6 104/103/6 101/71/6
f 90/84/6 85/88/6 103/104/6 108/105/6
f 78/86/6 96/102/6 97/106/6 79/90/6
f 86/87/6 92/65/6 110/68/6 104/103/6
f 85/88/6 103/104/6 99/78/6 81/77/6
f 79/90/9 97/106/9 98/107/9 80/92/9
f 77/96/6 88/95/6 106/108/6 95/109/6
f 76/83/6 77/96/6 95/109/6 94/101/6
f 80/92/6 98/107/6 99/78/6 81/77/6
f 75/69/6 87/98/6 105/110/6 93/72/6
f 79/90/6 84/73/6 102/76/6 97/106/6
f 100/79/6 99/78/6 103/104/6 108/105/6 109/67/6 110/68/6 104/103/6 101/71/6
f 105/110/10 101/71/10 104/103/10 110/68/10 96/102/10 97/106/10 102/76/10 107/75/10 94/101/10 95/109/10 106/108/10 93/72/10
f 109/67/10 108/105/10 103/104/10 99/78/10 98/107/10 107/75/10 102/76/10 97/106/10 96/102/10 110/68/10
